<svg width="44" height="33" viewBox="0 0 44 33" fill="none" xmlns="http://www.w3.org/2000/svg">
<g filter="url(#filter0_d_2019_6135)">
<rect x="4.75195" y="4.75195" width="34" height="23" rx="11.5" stroke="white" strokeOpacity="0.1"/>
<path d="M26.4277 9.25195C30.1964 9.25195 33.252 12.3429 33.252 16.1553C33.2518 19.9675 30.1963 23.0576 26.4277 23.0576C24.7383 23.0575 23.1936 22.4351 22.002 21.4062C20.8103 22.4351 19.2656 23.0575 17.5762 23.0576C13.8076 23.0576 10.7521 19.9675 10.752 16.1553C10.752 12.3429 13.8075 9.25195 17.5762 9.25195C19.2653 9.25206 20.8104 9.87381 22.002 10.9023C23.1935 9.87381 24.7386 9.25206 26.4277 9.25195Z" fill="#ED0006"/>
<path d="M26.4277 9.25195C30.1964 9.25195 33.252 12.3429 33.252 16.1553C33.2518 19.9675 30.1963 23.0576 26.4277 23.0576C24.7383 23.0575 23.1936 22.4351 22.002 21.4062C23.4683 20.1402 24.3993 18.2583 24.3994 16.1553C24.3994 14.0518 23.4688 12.1685 22.002 10.9023C23.1935 9.87381 24.7386 9.25206 26.4277 9.25195Z" fill="#F9A000"/>
<path d="M22.002 10.903C23.4686 12.1691 24.3994 14.0516 24.3994 16.1549C24.3994 18.258 23.4683 20.1398 22.002 21.4059C20.5356 20.1398 19.6045 18.258 19.6045 16.1549C19.6045 14.0516 20.5354 12.1691 22.002 10.903Z" fill="#FF5E00"/>
</g>
<defs>
<filter id="filter0_d_2019_6135" x="-1.52588e-05" y="-1.52588e-05" width="43.5039" height="32.5039" filterUnits="userSpaceOnUse" color-interpolation-filters="sRGB">
<feFlood flood-opacity="0" result="BackgroundImageFix"/>
<feColorMatrix in="SourceAlpha" type="matrix" values="0 0 0 0 0 0 0 0 0 0 0 0 0 0 0 0 0 0 127 0" result="hardAlpha"/>
<feOffset/>
<feGaussianBlur stdDeviation="2.12598"/>
<feComposite in2="hardAlpha" operator="out"/>
<feColorMatrix type="matrix" values="0 0 0 0 0 0 0 0 0 0 0 0 0 0 0 0 0 0 0.07 0"/>
<feBlend mode="normal" in2="BackgroundImageFix" result="effect1_dropShadow_2019_6135"/>
<feBlend mode="normal" in="SourceGraphic" in2="effect1_dropShadow_2019_6135" result="shape"/>
</filter>
</defs>
</svg>
