<svg width="20" height="20" viewBox="0 0 20 20" fill="none" xmlns="http://www.w3.org/2000/svg">
<path fill-rule="evenodd" clipRule="evenodd" d="M17.5841 6.66961C17.5369 6.66663 17.4855 6.66665 17.4322 6.66667L17.4189 6.66667H15.3284C13.6054 6.66667 12.131 8.02297 12.131 9.79167C12.131 11.5604 13.6054 12.9167 15.3284 12.9167H17.4189L17.4322 12.9167C17.4855 12.9167 17.5369 12.9167 17.5841 12.9137C18.284 12.8695 18.9029 12.3218 18.955 11.5568C18.9584 11.5067 18.9584 11.4526 18.9583 11.4025L18.9583 11.3889V8.19445L18.9583 8.18085C18.9584 8.13073 18.9584 8.07666 18.955 8.0265C18.9029 7.2615 18.284 6.71381 17.5841 6.66961ZM15.1431 10.625C15.5867 10.625 15.9463 10.2519 15.9463 9.79167C15.9463 9.33143 15.5867 8.95833 15.1431 8.95833C14.6995 8.95833 14.3399 9.33143 14.3399 9.79167C14.3399 10.2519 14.6995 10.625 15.1431 10.625Z" fill="#7E7F8C"/>
<path fill-rule="evenodd" clipRule="evenodd" d="M17.4316 14.1667C17.5559 14.1635 17.6499 14.2785 17.6162 14.3982C17.4489 14.9919 17.1834 15.4979 16.7573 15.924C16.1337 16.5476 15.3429 16.8244 14.3659 16.9557C13.4165 17.0834 12.2035 17.0833 10.672 17.0833H8.91135C7.37988 17.0833 6.16685 17.0834 5.2175 16.9557C4.24048 16.8244 3.44969 16.5476 2.82606 15.924C2.20242 15.3003 1.92566 14.5095 1.7943 13.5325C1.66666 12.5832 1.66667 11.3701 1.66669 9.83868V9.74465C1.66667 8.21319 1.66666 7.00016 1.7943 6.05082C1.92566 5.0738 2.20242 4.28301 2.82606 3.65937C3.44969 3.03573 4.24048 2.75897 5.2175 2.62761C6.16685 2.49998 7.37987 2.49999 8.91134 2.5L10.672 2.5C12.2035 2.49999 13.4165 2.49998 14.3659 2.62761C15.3429 2.75897 16.1337 3.03573 16.7573 3.65937C17.1834 4.08544 17.4489 4.59145 17.6162 5.18515C17.6499 5.3048 17.5559 5.41989 17.4316 5.41667L15.3284 5.41667C12.9645 5.41667 10.881 7.28409 10.881 9.79167C10.881 12.2993 12.9645 14.1667 15.3284 14.1667L17.4316 14.1667ZM5.83335 12.9167C5.48818 12.9167 5.20835 12.6368 5.20835 12.2917V7.29167C5.20835 6.94649 5.48818 6.66667 5.83335 6.66667C6.17853 6.66667 6.45835 6.94649 6.45835 7.29167V12.2917C6.45835 12.6368 6.17853 12.9167 5.83335 12.9167Z" fill="#7E7F8C"/>
</svg>
