<svg width="24" height="24" viewBox="0 0 24 24" fill="none" xmlns="http://www.w3.org/2000/svg">
<g clipPath="url(#clip0_4039_30235)">
<path d="M12 24C18.6274 24 24 18.6274 24 12C24 5.37258 18.6274 0 12 0C5.37258 0 0 5.37258 0 12C0 18.6274 5.37258 24 12 24Z" fill="#2196F3"/>
<path d="M14.5785 15.9255C14.019 16.3065 13.404 16.5 12.75 16.5C11.3685 16.5 10.1715 15.588 9.522 14.25H12C12.414 14.25 12.75 13.914 12.75 13.5C12.75 13.086 12.414 12.75 12 12.75H9.063C9.0285 12.5055 9 12.2565 9 12C9 11.7435 9.0285 11.4945 9.063 11.25H12.75C13.164 11.25 13.5 10.914 13.5 10.5C13.5 10.086 13.164 9.75 12.75 9.75H9.522C10.1715 8.412 11.3685 7.5 12.75 7.5C13.404 7.5 14.019 7.6935 14.5785 8.0745C14.919 8.307 15.387 8.223 15.6195 7.878C15.852 7.536 15.765 7.0695 15.4215 6.8355C14.6205 6.2895 13.6965 6 12.75 6C10.5525 6 8.6715 7.5555 7.89 9.75H6.75C6.336 9.75 6 10.086 6 10.5C6 10.914 6.336 11.25 6.75 11.25H7.566C7.539 11.499 7.5 11.7435 7.5 12C7.5 12.2565 7.539 12.501 7.566 12.75H6.75C6.336 12.75 6 13.086 6 13.5C6 13.914 6.336 14.25 6.75 14.25H7.89C8.6715 16.4445 10.5525 18 12.75 18C13.6965 18 14.6205 17.7105 15.4215 17.1645C15.765 16.9305 15.852 16.464 15.6195 16.122C15.387 15.78 14.9175 15.6945 14.5785 15.9255Z" fill="#FAFAFA"/>
</g>
<defs>
<clipPath id="clip0_4039_30235">
<rect width="24" height="24" fill="white"/>
</clipPath>
</defs>
</svg>
